<?xml version="1.0" encoding="utf-8"?>
<!-- Generator: Adobe Illustrator 21.1.0, SVG Export Plug-In . SVG Version: 6.00 Build 0)  -->
<svg version="1.1" id="Layer_2" xmlns="http://www.w3.org/2000/svg" xmlns:xlink="http://www.w3.org/1999/xlink" x="0px" y="0px"
	 viewBox="0 0 1366 768" style="enable-background:new 0 0 1366 768;" xml:space="preserve">
<style type="text/css">
	.st0{fill:none;stroke:#000000;stroke-width:0.25;stroke-miterlimit:10;}
</style>
<path class="st0" d="M399.2,126.9c47,0,74,5,82,7s13-2,15-7s19-23,25-23s1,18-3,31s6,6,12,6s174,5,180,2s19-11,37-6s45,7,56,7
	s67-8,88-8s97-3,126,10s79,28,79,173s-31,195-163,195s-79-15-140-15s-38,13-62,12s-11-11-51-10s-149-6-162-9s-13-1-7,10
	c6,11,15,28,0,25s-22-22-33-21s-50,4-79,4s-166,22-166-190S352.2,126.9,399.2,126.9z"/>
</svg>
